<?xml version="1.0" encoding="UTF-8"?>
<svg version="1.1" xmlns="http://www.w3.org/2000/svg" width="2000" height="2000">
<path d="M0 0 C660 0 1320 0 2000 0 C2000 660 2000 1320 2000 2000 C1340 2000 680 2000 0 2000 C0 1340 0 680 0 0 Z " fill="#FEFEFE" transform="translate(0,0)"/>
<path d="M0 0 C1.41667243 -0.00135125 2.8333444 -0.00329558 4.25001526 -0.00579834 C7.20423848 -0.00872898 10.15833989 -0.00451958 13.11254883 0.00488281 C16.86887812 0.01626563 20.62492111 0.00971221 24.38123989 -0.00226212 C27.30261833 -0.00954578 30.22393075 -0.00716303 33.14531136 -0.00200653 C34.52897235 -0.0006874 35.91263965 -0.00225564 37.29629326 -0.00696564 C57.43657245 -0.0604937 72.77004285 4.9489159 87.19140625 19.265625 C92.61901174 25.58729529 97.01140179 32.5572043 100.19140625 40.265625 C100.43923147 40.85518371 100.68705669 41.44474241 100.94239176 42.05216653 C103.46651881 48.69691833 103.61102573 54.84076974 103.56745374 61.89202005 C103.57166069 63.14991795 103.57586764 64.40781586 103.58020208 65.70383188 C103.59145158 69.19583143 103.58406499 72.68757961 103.57363223 76.17957248 C103.5655712 79.9925571 103.57498502 83.80550601 103.58214277 87.61848691 C103.59232436 94.32709799 103.59132688 101.03563598 103.58309214 107.74424867 C103.57081999 117.78733326 103.575838 127.83035851 103.58424006 137.87344444 C103.59804954 154.98916793 103.59758544 172.10486469 103.58939743 189.22059059 C103.58114835 206.56955507 103.57939887 223.91850196 103.58560944 241.2674675 C103.58619071 242.91014173 103.58619071 242.91014173 103.58678373 244.5860013 C103.58838352 249.04612497 103.59002964 253.50624862 103.59173456 257.96637225 C103.60761024 299.52674677 103.60867525 341.08710949 103.60029221 382.64748573 C103.59991963 384.49548779 103.59991963 384.49548779 103.59953952 386.38082323 C103.59929073 387.61479022 103.59904194 388.84875721 103.59878561 390.12011714 C103.59122122 427.68785425 103.58925949 465.25558649 103.59285355 502.8233242 C103.59308598 505.33736967 103.59331745 507.85141513 103.59354796 510.3654606 C103.59447933 520.4679682 103.59543533 530.5704758 103.59642725 540.6729834 C103.59917852 568.9153542 103.60089014 597.15772502 103.60178566 625.40009594 C103.60184707 627.32937498 103.60184707 627.32937498 103.60190971 629.29762936 C103.60313788 670.29247956 103.59975795 711.28732833 103.59323692 752.28217793 C103.59313157 752.94706935 103.59302621 753.61196077 103.59291767 754.29700042 C103.58938856 776.56795366 103.58562038 798.83890686 103.58182777 821.10986006 C103.57036716 888.45450264 103.56408467 955.79913894 103.58217377 1076.062368 C103.58596338 1098.32399245 103.58970892 1120.58561691 103.59323692 1142.8472414 C103.59334266 1143.51183988 103.59344839 1144.17643836 103.59355733 1144.86117619 C103.60017317 1186.48104244 103.60311031 1228.10090782 103.60178566 1269.72077465 C103.60174491 1271.00606093 103.60170415 1272.2913472 103.60166217 1273.61558155 C103.60072478 1301.82822995 103.59882395 1330.04087822 103.59605415 1358.2535265 C103.5950667 1368.34803944 103.59412746 1378.44255238 103.59320202 1388.53706533 C103.59296985 1391.04839219 103.59273366 1393.55971905 103.59249343 1396.07104592 C103.58891067 1433.6281305 103.59196584 1471.1852096 103.59953952 1508.7422935 C103.59978791 1509.97404649 103.60003629 1511.20579947 103.60029221 1512.47487831 C103.60066428 1514.31910986 103.60066428 1514.31910986 103.60104386 1516.20059861 C103.60931326 1557.6425185 103.60628548 1599.08442422 103.59044997 1640.52634207 C103.58879287 1644.9740878 103.58718276 1649.42183355 103.58560944 1653.86957932 C103.58502351 1655.50694002 103.58502351 1655.50694002 103.58442574 1657.17737872 C103.57850236 1674.48040054 103.58263488 1691.78340479 103.59091645 1709.08642503 C103.59884115 1726.08939213 103.59608701 1743.0923295 103.58187419 1760.09529282 C103.57385446 1770.070526 103.57405946 1780.04567777 103.58631898 1790.02090711 C103.59363821 1796.64173956 103.59012378 1803.26250848 103.57771842 1809.88333322 C103.57098586 1813.6391194 103.56891349 1817.39474321 103.58016797 1821.15052225 C103.59216285 1825.18820802 103.58091247 1829.22550142 103.56745374 1833.26318246 C103.57462597 1834.41669086 103.58179819 1835.57019927 103.58918776 1836.75866247 C103.46652286 1854.80345181 96.74817735 1869.38825549 84.19140625 1882.265625 C72.6757253 1892.77994239 59.24172418 1898.33021938 43.60449219 1898.42675781 C42.33917664 1898.43636536 41.07386108 1898.4459729 39.77020264 1898.45587158 C38.40539737 1898.4607212 37.04058998 1898.46499963 35.67578125 1898.46875 C34.97881386 1898.47157738 34.28184647 1898.47440475 33.56375885 1898.47731781 C29.87469615 1898.49224852 26.18567192 1898.50151638 22.49658203 1898.50585938 C18.71656593 1898.51133281 14.93691202 1898.53535436 11.15700912 1898.56383133 C8.22276833 1898.58259578 5.28861239 1898.5876706 2.35431671 1898.58919525 C0.9622627 1898.59219164 -0.42979093 1898.60011608 -1.82178497 1898.61338043 C-20.39430661 1898.77772156 -35.238633 1893.16649677 -48.80859375 1880.265625 C-59.43470208 1869.05020043 -66.92995082 1853.60352757 -66.93515559 1837.94307125 C-66.9379309 1836.87990026 -66.94070622 1835.81672927 -66.94356563 1834.72134098 C-66.9415293 1833.55625328 -66.93949296 1832.39116557 -66.93739492 1831.19077218 C-66.93916993 1829.94391473 -66.94094494 1828.69705728 -66.94277373 1827.41241627 C-66.94758176 1823.93283394 -66.94613624 1820.45327749 -66.94371603 1816.97369371 C-66.94217705 1813.18109762 -66.94642789 1809.38850733 -66.9499428 1805.59591317 C-66.95532411 1798.9170101 -66.95695889 1792.23811408 -66.95619205 1785.559209 C-66.95505832 1775.56047468 -66.95963234 1765.56174858 -66.96532289 1755.56301611 C-66.97484322 1738.52429744 -66.97954348 1721.48558042 -66.98163223 1704.44685936 C-66.98375924 1687.17200663 -66.98801552 1669.89715644 -66.99487495 1652.62230492 C-66.99530557 1651.5324845 -66.99573618 1650.44266408 -66.99617985 1649.3198188 C-66.99793815 1644.88136042 -66.9997078 1640.44290203 -67.00149287 1636.00444365 C-67.02310311 1582.16721956 -67.03397315 1528.32999496 -67.0429691 1474.49276751 C-67.04590224 1457.03691025 -67.04927202 1439.58105311 -67.05293632 1422.12519598 C-67.05332375 1420.27850243 -67.05332375 1420.27850243 -67.05371902 1418.39450194 C-67.05476522 1413.41397621 -67.05581364 1408.43345048 -67.05686484 1403.45292475 C-67.07483014 1318.25968454 -67.09021147 1233.06644412 -67.09762387 1147.87320228 C-67.09814833 1141.85030464 -67.09868564 1135.82740699 -67.09922233 1129.80450935 C-67.09940154 1127.79311665 -67.0995805 1125.78172396 -67.09975942 1123.77033126 C-67.1008965 1110.99243261 -67.10204257 1098.21453396 -67.10320762 1085.43663531 C-67.10351493 1082.06539276 -67.10382087 1078.69415022 -67.10412353 1075.32290767 C-67.1098431 1011.65413242 -67.11908498 947.98536116 -67.14154053 884.31658936 C-67.14177676 883.64638636 -67.14201298 882.97618336 -67.14225637 882.28567118 C-67.14988423 860.67183971 -67.15793306 839.05800839 -67.16604164 817.4441771 C-67.17384923 796.6322648 -67.18157266 775.82035248 -67.18893147 755.00844002 C-67.18916555 754.34687972 -67.18939964 753.68531942 -67.18964083 753.00371185 C-67.20427817 711.57009117 -67.21407255 670.13647144 -67.21880627 628.70284843 C-67.21895329 627.42318175 -67.21910031 626.14351507 -67.21925178 624.82507062 C-67.22243643 596.73473819 -67.22448744 568.6444058 -67.22547933 540.55407321 C-67.22589408 529.25194922 -67.22644898 517.94982524 -67.22704124 506.64770126 C-67.22710191 505.41073743 -67.22716258 504.1737736 -67.22722509 502.89932602 C-67.22924205 463.03474792 -67.24348763 423.17018579 -67.26398625 383.30561326 C-67.28455748 343.15748228 -67.29246635 303.00936977 -67.28290848 262.86123405 C-67.28159 257.31514129 -67.28041196 251.76904851 -67.27931786 246.2229557 C-67.27909801 245.13575291 -67.27887816 244.04855012 -67.27865165 242.9284018 C-67.27553553 225.70314541 -67.2858708 208.47792433 -67.30179341 191.25267613 C-67.31716644 174.32087025 -67.31830786 157.38911326 -67.30424517 140.45730569 C-67.29642654 130.52708507 -67.29957202 120.59701373 -67.31888233 110.66680798 C-67.33061483 104.07192847 -67.32783921 97.47715803 -67.31326769 90.88228444 C-67.30541334 87.14366401 -67.30370219 83.40533566 -67.31988673 79.66673541 C-67.41840798 55.30967748 -65.55377612 35.52754116 -47.78515625 17.17578125 C-42.0723659 11.80328347 -35.70037689 7.95587067 -28.80859375 4.265625 C-28.18211441 3.92867615 -27.55563507 3.59172729 -26.91017151 3.24456787 C-18.59222585 -0.63004184 -8.95616421 -0.03043522 0 0 Z " fill="#004AAD" transform="translate(640.80859375,50.734375)"/>
<path d="M0 0 C1.12611864 0.9611325 2.25165901 1.92294256 3.37695312 2.88504028 C4.31722351 3.68834369 4.31722351 3.68834369 5.27648926 4.50787544 C7.08104221 6.07016206 8.81038738 7.68134634 10.5 9.3671875 C11.07322998 9.93840332 11.64645996 10.50961914 12.23706055 11.09814453 C13.10971558 11.97768799 13.10971558 11.97768799 14 12.875 C14.61593018 13.49358887 15.23186035 14.11217773 15.86645508 14.74951172 C19.45789493 18.3785857 22.93835324 22.05862763 26.23828125 25.95703125 C28.09075011 28.10523794 30.00849683 30.18610484 31.93847656 32.26464844 C36.7040931 37.39959216 41.24396235 42.64768853 45.63671875 48.109375 C47.79311203 50.74694694 50.00173952 53.32238897 52.23999023 55.88989258 C59.55861834 64.29951101 66.33073624 73.07026383 73 82 C73.56477051 82.75442383 74.12954102 83.50884766 74.71142578 84.28613281 C99.34104452 117.25075377 121.77078476 151.59852492 141 188 C141.48243164 188.90459961 141.96486328 189.80919922 142.46191406 190.74121094 C161.94362672 227.28064436 178.3363637 264.92581119 192 304 C192.56605957 305.61551758 192.56605957 305.61551758 193.14355469 307.26367188 C197.75674197 320.52504759 201.7910934 333.87423227 205.33398438 347.45947266 C205.95400057 349.82453443 206.59049292 352.18431068 207.234375 354.54296875 C215.84464098 386.28133679 222.57877952 418.41558563 227 451 C227.10074829 451.73659851 227.20149658 452.47319702 227.30529785 453.2321167 C227.98118926 458.17574652 228.6447681 463.12085679 229.29589844 468.06781006 C229.50906483 469.68367613 229.72411377 471.29929542 229.94140625 472.91461182 C230.70296486 478.6020508 231.37996693 484.29542964 232 490 C232.09676025 490.86693481 232.19352051 491.73386963 232.29321289 492.6270752 C234.57400744 513.95949403 234.3075054 535.37927901 234.26074219 556.80419922 C234.24933356 562.07294801 234.25613267 567.34149516 234.26761532 572.61023712 C234.34381211 613.65021468 234.34381211 613.65021468 232.27703857 631.58807373 C231.99742228 634.0224419 231.75080843 636.45826782 231.51220703 638.89697266 C226.56172737 688.6690059 218.18451916 738.88368164 202.7734375 786.55712891 C202.02924102 788.90764341 201.33288871 791.26596601 200.65625 793.63671875 C190.73532995 828.33438836 177.33911312 862.35522079 162 895 C161.56397461 895.93231445 161.12794922 896.86462891 160.67871094 897.82519531 C139.15029238 943.70960096 113.64859283 986.90450451 84 1028 C83.17266357 1029.14831299 83.17266357 1029.14831299 82.32861328 1030.31982422 C72.07541007 1044.50655533 61.23242823 1058.11293125 49.87329102 1071.42602539 C47.10317742 1074.67487428 44.4120973 1077.97494518 41.75 1081.3125 C36.12795896 1088.22418486 29.94176254 1094.6066273 23.81738281 1101.06933594 C21.17964235 1103.87149224 18.58813303 1106.71459493 16 1109.5625 C12.54518775 1113.3519811 9.03754625 1117.04460715 5.33984375 1120.59765625 C3.76418322 1122.16552676 3.76418322 1122.16552676 2 1125 C-0.98093009 1123.65972043 -3.06345315 1122.18468111 -5.36627197 1119.87423706 C-6.01124634 1119.23201202 -6.6562207 1118.58978699 -7.32073975 1117.92810059 C-8.01701477 1117.22463501 -8.71328979 1116.52116943 -9.43066406 1115.79638672 C-10.17251953 1115.0548233 -10.914375 1114.31325989 -11.67871094 1113.54922485 C-14.12911939 1111.09742329 -16.572368 1108.63861395 -19.015625 1106.1796875 C-20.71341057 1104.47817175 -22.41163829 1102.77709708 -24.11029053 1101.07644653 C-28.57974916 1096.59935194 -33.04316914 1092.11628362 -37.50537109 1087.63195801 C-42.05985468 1083.05701531 -46.62000567 1078.48772952 -51.1796875 1073.91796875 C-60.12535692 1064.95085005 -69.0648529 1055.97760292 -78 1047 C-76.37915347 1043.55598213 -74.57463755 1041.39328482 -71.8125 1038.75 C-68.38920488 1035.40265755 -65.18282552 1031.98524049 -62.0703125 1028.3515625 C-59.87298229 1025.85572705 -57.61066226 1023.43199015 -55.33447266 1021.00830078 C-50.08177892 1015.41352931 -45.02570653 1009.74847343 -40.2265625 1003.75390625 C-38.23322386 1001.28846108 -36.19045019 998.87471717 -34.12207031 996.47216797 C-27.05898451 988.25033392 -20.47823202 979.68729174 -14 971 C-13.48743652 970.31373535 -12.97487305 969.6274707 -12.44677734 968.92041016 C8.11106224 941.25826447 26.41638028 912.04359767 42.60009766 881.62353516 C43.96351925 879.068368 45.34541823 876.52396138 46.73046875 873.98046875 C69.10784015 832.52909061 87.62299792 786.25069635 98.421875 740.35546875 C99.16906354 737.31118031 100.04303861 734.31176014 100.92553711 731.30444336 C104.41379308 719.36896576 106.69328628 707.20887768 109 695 C109.21688477 693.86723633 109.43376953 692.73447266 109.65722656 691.56738281 C121.19538844 631.25967072 124.96641204 570.2370867 120 509 C119.89816406 507.71512695 119.79632812 506.43025391 119.69140625 505.10644531 C116.61553922 467.38910055 110.47731176 429.64925761 101 393 C100.72470459 391.93193115 100.72470459 391.93193115 100.44384766 390.84228516 C81.92422085 319.90799902 51.85379454 252.47044398 12 191 C11.30648438 189.93007812 10.61296875 188.86015625 9.8984375 187.7578125 C1.39882253 174.85098976 -7.62533379 162.28347221 -17 150 C-17.78890625 148.95457031 -18.5778125 147.90914062 -19.390625 146.83203125 C-24.51101369 140.07575181 -29.84483628 133.54704382 -35.359375 127.109375 C-37.73718381 124.32785189 -40.02849451 121.4842365 -42.3125 118.625 C-47.14339522 112.68395292 -52.38072464 107.15162539 -57.6328125 101.5859375 C-60.42938825 98.62053549 -63.16626157 95.60865914 -65.875 92.5625 C-69.75989572 88.21112524 -73.82506364 84.07255372 -78 80 C-76.65972043 77.01906991 -75.18468111 74.93654685 -72.87423706 72.63372803 C-72.23201202 71.98875366 -71.58978699 71.3437793 -70.92810059 70.67926025 C-70.22463501 69.98298523 -69.52116943 69.28671021 -68.79638672 68.56933594 C-68.0548233 67.82748047 -67.31325989 67.085625 -66.54922485 66.32128906 C-64.09742329 63.87088061 -61.63861395 61.427632 -59.1796875 58.984375 C-57.47817175 57.28658943 -55.77709708 55.58836171 -54.07644653 53.88970947 C-49.59935194 49.42025084 -45.11628362 44.95683086 -40.63195801 40.49462891 C-36.05701531 35.94014532 -31.48772952 31.37999433 -26.91796875 26.8203125 C-17.95085005 17.87464308 -8.97760292 8.9351471 0 0 Z " fill="#004AAD" transform="translate(1191,53)"/>
<path d="M0 0 C1.11254559 0.94090143 2.22327542 1.88395009 3.33325195 2.82788086 C3.95198685 3.35280624 4.57072174 3.87773163 5.20820618 4.41856384 C7.7241157 6.63910408 9.94785671 9.06590539 12.1875 11.5625 C13.13627683 12.61498188 14.08551229 13.66705046 15.03515625 14.71875 C15.52000488 15.25757813 16.00485352 15.79640625 16.50439453 16.3515625 C18.00801185 18.00883056 19.52942806 19.64754675 21.05859375 21.28125 C27.32484601 27.97821363 33.2769452 34.82697661 39 42 C39.92091185 43.12969208 40.84284111 44.25855532 41.765625 45.38671875 C49.57532232 54.97834701 56.86123644 64.9016688 64 75 C64.41878418 75.59022949 64.83756836 76.18045898 65.26904297 76.78857422 C83.0578453 101.91665601 98.20937662 128.49375023 112 156 C112.43151367 156.85899902 112.86302734 157.71799805 113.30761719 158.60302734 C145.62994644 223.47418196 163.80331225 296.78723946 168 369 C168.05784668 369.95696777 168.11569336 370.91393555 168.17529297 371.89990234 C173.42937905 462.27953732 156.2615686 551.03382816 114 649 C113.50693359 650.03527832 113.01386719 651.07055664 112.50585938 652.13720703 C103.9220993 670.02869002 94.41996933 687.10268211 84 704 C83.38060547 705.00885254 82.76121094 706.01770508 82.12304688 707.05712891 C75.08001138 718.48228836 67.69741186 729.47834535 59.47216797 740.08349609 C57.94892922 742.06648517 56.45725615 744.06997633 54.97265625 746.08203125 C49.41268551 753.61233058 43.68328837 760.90719823 37.5703125 767.99609375 C35.21652665 770.74694682 32.94585614 773.54580476 30.6875 776.375 C25.3589978 782.92362435 19.54218538 789.00157502 13.75 795.13671875 C11.01643222 798.04723623 8.31878699 800.99019584 5.625 803.9375 C5.15465332 804.45175537 4.68430664 804.96601074 4.19970703 805.49584961 C3.13252812 806.66334253 2.06615958 807.83157614 1 809 C-3.0823021 807.37762918 -5.81919972 804.45552411 -8.85083008 801.39208984 C-9.42538437 800.8194339 -9.99993866 800.24677795 -10.59190369 799.6567688 C-12.48936641 797.76300891 -14.37953238 795.86214423 -16.26953125 793.9609375 C-17.59189455 792.63738122 -18.91462868 791.31419536 -20.23771667 789.99136353 C-23.01225463 787.21526115 -25.78340153 784.43583225 -28.55200195 781.65380859 C-32.08397634 778.1049193 -35.62242179 774.56257245 -39.16324329 771.02251244 C-41.89776012 768.28772218 -44.62965098 765.55032127 -47.36069298 762.81206131 C-48.66332766 761.5062644 -49.96655128 760.20105471 -51.27039528 758.8964653 C-63.57509405 746.57703598 -63.57509405 746.57703598 -68.71160889 740.51077271 C-70.5138052 738.39750991 -72.45721273 736.44554539 -74.4375 734.5 C-75.45650391 733.49453125 -75.45650391 733.49453125 -76.49609375 732.46875 C-76.99238281 731.9840625 -77.48867188 731.499375 -78 731 C-76.57572976 726.27832835 -73.80634286 723.4906437 -70.3125 720.1875 C-69.21440506 719.11897353 -68.11804162 718.0486647 -67.0234375 716.9765625 C-66.23404785 716.20554199 -66.23404785 716.20554199 -65.42871094 715.41894531 C-62.42910389 712.43984139 -59.72324818 709.2290783 -57 706 C-56.22785156 705.11699219 -55.45570313 704.23398437 -54.66015625 703.32421875 C-46.86272868 694.35424568 -39.75550833 684.89185916 -32.71142578 675.32421875 C-31.66638772 673.90499445 -30.61857701 672.4877997 -29.56591797 671.07421875 C-18.09807671 655.6736771 -8.28938048 639.09593809 0.80712891 622.20507812 C1.99555253 620.00822135 3.20560545 617.82434257 4.41796875 615.640625 C29.05785761 570.71658183 45.02725608 518.64923705 52 468 C52.22429687 466.41735352 52.22429687 466.41735352 52.453125 464.80273438 C58.06805497 422.90858017 57.5205123 377.72440294 51 336 C50.83983398 334.94264648 50.67966797 333.88529297 50.51464844 332.79589844 C49.53412901 326.48601651 48.32868655 320.24482681 47 314 C46.78085938 312.94167969 46.56171875 311.88335938 46.3359375 310.79296875 C43.4255112 296.80053462 40.16847966 283.00848241 35.77539062 269.40380859 C34.98623622 266.95733056 34.21962331 264.5044403 33.453125 262.05078125 C22.58001869 227.80181592 7.16946833 194.4006983 -12 164 C-12.48307617 163.22785156 -12.96615234 162.45570313 -13.46386719 161.66015625 C-30.97463997 133.76688987 -51.42011897 105.85807253 -75.7578125 83.5 C-77.30785732 81.62824777 -77.72138754 80.41434681 -78 78 C-76.90489292 76.28965378 -76.90489292 76.28965378 -75.15907288 74.55780029 C-74.50414352 73.89599762 -73.84921417 73.23419495 -73.17443848 72.55233765 C-72.4414856 71.83736115 -71.70853271 71.12238464 -70.95336914 70.38574219 C-70.19273666 69.62437958 -69.43210419 68.86301697 -68.64842224 68.07858276 C-66.12233426 65.55598811 -63.57897546 63.05157798 -61.03515625 60.546875 C-59.28386249 58.80490302 -57.5336668 57.06182643 -55.78453064 55.31768799 C-51.17089874 50.72317526 -46.54245011 46.14387166 -41.91082764 41.56750488 C-37.18869719 36.89914687 -32.48329651 32.21394512 -27.77539062 27.53125 C-18.53069601 18.34023002 -9.27076658 9.16471727 0 0 Z " fill="#004AAD" transform="translate(1033,211)"/>
<path d="M0 0 C8.6385279 4.31926395 14.80137246 12.73396474 20.73828125 20.18359375 C22.99388531 22.99238568 25.3353811 25.70934904 27.6875 28.4375 C55.45004402 61.85537707 76.48870003 102.46248411 89 144 C89.29849854 144.98830811 89.29849854 144.98830811 89.60302734 145.99658203 C98.37953546 175.38593177 103.3840389 205.87383501 103.953125 236.56298828 C103.99800266 238.89615919 104.07556985 241.22643322 104.15625 243.55859375 C104.4392481 254.69024708 103.60177837 265.727676 102.6875 276.8125 C102.62864624 277.55212982 102.56979248 278.29175964 102.50915527 279.05380249 C101.6845329 289.23483669 100.16653441 299.01744163 98 309 C97.5164167 311.45746835 97.03674925 313.91571329 96.5625 316.375 C83.24725046 382.33352995 49.54444521 443.45555479 2 491 C-1.35750949 490.67179855 -3.03538419 489.33695661 -5.36627197 486.99449158 C-6.01124634 486.3536412 -6.6562207 485.71279083 -7.32073975 485.05252075 C-8.01701477 484.3454599 -8.71328979 483.63839905 -9.43066406 482.90991211 C-10.17251953 482.16849472 -10.914375 481.42707733 -11.67871094 480.66319275 C-14.13152564 478.20828634 -16.57354069 475.74292095 -19.015625 473.27734375 C-20.71319247 471.57418172 -22.41142305 469.87168038 -24.11029053 468.16981506 C-28.58197345 463.6866725 -33.04457468 459.194594 -37.50537109 454.70062256 C-42.0580465 450.11727066 -46.61921604 445.54238937 -51.1796875 440.96679688 C-60.12814487 431.98615557 -69.06732651 422.9963396 -78 414 C-76.24827132 410.25998271 -74.06439667 407.79891251 -71.1875 404.8125 C-50.22422524 382.45844648 -34.57646161 355.81997033 -23.83886719 327.22314453 C-23.10369795 325.27481768 -22.33935267 323.33755138 -21.5703125 321.40234375 C-18.91987503 314.49639021 -17.0394532 307.50739474 -15.375 300.3125 C-15.18075439 299.4767041 -14.98650879 298.6409082 -14.78637695 297.77978516 C-14.1414233 294.86121252 -13.56300982 291.93553925 -13 289 C-12.87151672 288.35625427 -12.74303345 287.71250854 -12.61065674 287.04925537 C-10.076476 274.09740039 -9.531342 261.42667186 -9.60888672 248.24804688 C-9.62498274 245.00347881 -9.60893498 241.76015588 -9.58984375 238.515625 C-9.57728052 225.73748901 -10.4761494 213.53048944 -13 201 C-13.14486847 200.27534546 -13.28973694 199.55069092 -13.43899536 198.80407715 C-21.90223225 157.08951119 -41.91750781 118.5700842 -70.859375 87.484375 C-73.44250586 84.4864348 -75.69986704 81.22018615 -78 78 C-52.26 52.26 -26.52 26.52 0 0 Z " fill="#004AAD" transform="translate(874,370)"/>
</svg>
